<svg width="25" height="24" viewBox="0 0 25 24" fill="none" xmlns="http://www.w3.org/2000/svg">
<path d="M11.4878 7.25C11.3552 7.25 11.228 7.30268 11.1342 7.39645C11.0405 7.49021 10.9878 7.61739 10.9878 7.75C10.9878 7.88261 11.0405 8.00979 11.1342 8.10355C11.228 8.19732 11.3552 8.25 11.4878 8.25H14.4878C14.6204 8.25 14.7476 8.19732 14.8413 8.10355C14.9351 8.00979 14.9878 7.88261 14.9878 7.75C14.9878 7.61739 14.9351 7.49021 14.8413 7.39645C14.7476 7.30268 14.6204 7.25 14.4878 7.25H11.4878ZM10.4878 12.75C10.4878 13.0152 10.3824 13.2696 10.1949 13.4571C10.0074 13.6446 9.75301 13.75 9.48779 13.75C9.22258 13.75 8.96822 13.6446 8.78069 13.4571C8.59315 13.2696 8.48779 13.0152 8.48779 12.75C8.48779 12.4848 8.59315 12.2304 8.78069 12.0429C8.96822 11.8554 9.22258 11.75 9.48779 11.75C9.75301 11.75 10.0074 11.8554 10.1949 12.0429C10.3824 12.2304 10.4878 12.4848 10.4878 12.75ZM10.4878 16.25C10.4878 16.5152 10.3824 16.7696 10.1949 16.9571C10.0074 17.1446 9.75301 17.25 9.48779 17.25C9.22258 17.25 8.96822 17.1446 8.78069 16.9571C8.59315 16.7696 8.48779 16.5152 8.48779 16.25C8.48779 15.9848 8.59315 15.7304 8.78069 15.5429C8.96822 15.3554 9.22258 15.25 9.48779 15.25C9.75301 15.25 10.0074 15.3554 10.1949 15.5429C10.3824 15.7304 10.4878 15.9848 10.4878 16.25ZM12.9878 13.75C13.253 13.75 13.5074 13.6446 13.6949 13.4571C13.8824 13.2696 13.9878 13.0152 13.9878 12.75C13.9878 12.4848 13.8824 12.2304 13.6949 12.0429C13.5074 11.8554 13.253 11.75 12.9878 11.75C12.7226 11.75 12.4682 11.8554 12.2807 12.0429C12.0931 12.2304 11.9878 12.4848 11.9878 12.75C11.9878 13.0152 12.0931 13.2696 12.2807 13.4571C12.4682 13.6446 12.7226 13.75 12.9878 13.75ZM13.9878 16.25C13.9878 16.5152 13.8824 16.7696 13.6949 16.9571C13.5074 17.1446 13.253 17.25 12.9878 17.25C12.7226 17.25 12.4682 17.1446 12.2807 16.9571C12.0931 16.7696 11.9878 16.5152 11.9878 16.25C11.9878 15.9848 12.0931 15.7304 12.2807 15.5429C12.4682 15.3554 12.7226 15.25 12.9878 15.25C13.253 15.25 13.5074 15.3554 13.6949 15.5429C13.8824 15.7304 13.9878 15.9848 13.9878 16.25ZM16.4878 13.75C16.753 13.75 17.0074 13.6446 17.1949 13.4571C17.3824 13.2696 17.4878 13.0152 17.4878 12.75C17.4878 12.4848 17.3824 12.2304 17.1949 12.0429C17.0074 11.8554 16.753 11.75 16.4878 11.75C16.2226 11.75 15.9682 11.8554 15.7807 12.0429C15.5932 12.2304 15.4878 12.4848 15.4878 12.75C15.4878 13.0152 15.5932 13.2696 15.7807 13.4571C15.9682 13.6446 16.2226 13.75 16.4878 13.75Z" fill="black"/>
<path fill-rule="evenodd" clip-rule="evenodd" d="M8.98779 3.5C9.1204 3.5 9.24758 3.55268 9.34135 3.64645C9.43511 3.74021 9.48779 3.86739 9.48779 4V5H16.4878V4C16.4878 3.86739 16.5405 3.74021 16.6342 3.64645C16.728 3.55268 16.8552 3.5 16.9878 3.5C17.1204 3.5 17.2476 3.55268 17.3413 3.64645C17.4351 3.74021 17.4878 3.86739 17.4878 4V5.003C17.7325 5.005 17.9505 5.01367 18.1418 5.029C18.5068 5.059 18.8268 5.122 19.1228 5.272C19.5931 5.51189 19.9753 5.89451 20.2148 6.365C20.3658 6.661 20.4288 6.981 20.4588 7.345C20.4878 7.7 20.4878 8.137 20.4878 8.679V16.321C20.4878 16.863 20.4878 17.301 20.4588 17.654C20.4288 18.019 20.3658 18.339 20.2148 18.635C19.9752 19.1051 19.5929 19.4874 19.1228 19.727C18.8268 19.878 18.5068 19.941 18.1428 19.971C17.7878 20 17.3508 20 16.8098 20H9.16679C8.62479 20 8.18679 20 7.83379 19.971C7.46879 19.941 7.14879 19.878 6.85279 19.727C6.3823 19.4875 5.99969 19.1053 5.75979 18.635C5.60979 18.339 5.54679 18.019 5.51679 17.655C5.48779 17.3 5.48779 16.862 5.48779 16.32V8.68C5.48779 8.205 5.48779 7.812 5.50779 7.483L5.51679 7.347C5.54679 6.982 5.60979 6.662 5.75979 6.366C5.99952 5.89535 6.38215 5.51272 6.85279 5.273C7.14879 5.123 7.46879 5.06 7.83279 5.03C8.02546 5.01467 8.24379 5.006 8.48779 5.004V4C8.48779 3.86739 8.54047 3.74021 8.63424 3.64645C8.72801 3.55268 8.85518 3.5 8.98779 3.5ZM8.48779 6.5V6.003C8.2966 6.00458 8.1055 6.01225 7.91479 6.026C7.61279 6.05 7.43879 6.096 7.30679 6.163C7.0243 6.30685 6.79465 6.53651 6.65079 6.819C6.58379 6.951 6.53779 7.125 6.51379 7.427C6.48779 7.736 6.48779 8.132 6.48779 8.7V9.25H19.4878V8.7C19.4878 8.132 19.4878 7.736 19.4618 7.427C19.4378 7.125 19.3918 6.951 19.3248 6.819C19.1809 6.53651 18.9513 6.30685 18.6688 6.163C18.5368 6.096 18.3628 6.05 18.0608 6.026C17.8701 6.01225 17.679 6.00458 17.4878 6.003V6.5C17.4878 6.63261 17.4351 6.75979 17.3413 6.85355C17.2476 6.94732 17.1204 7 16.9878 7C16.8552 7 16.728 6.94732 16.6342 6.85355C16.5405 6.75979 16.4878 6.63261 16.4878 6.5V6H9.48779V6.5C9.48779 6.63261 9.43511 6.75979 9.34135 6.85355C9.24758 6.94732 9.1204 7 8.98779 7C8.85518 7 8.72801 6.94732 8.63424 6.85355C8.54047 6.75979 8.48779 6.63261 8.48779 6.5ZM19.4878 10.25H6.48779V16.3C6.48779 16.868 6.48779 17.265 6.51379 17.573C6.53779 17.875 6.58379 18.049 6.65079 18.181C6.79465 18.4635 7.0243 18.6931 7.30679 18.837C7.43879 18.904 7.61279 18.95 7.91479 18.974C8.22379 19 8.61979 19 9.18779 19H16.7878C17.3558 19 17.7528 19 18.0608 18.974C18.3628 18.95 18.5368 18.904 18.6688 18.837C18.9513 18.6931 19.1809 18.4635 19.3248 18.181C19.3918 18.049 19.4378 17.875 19.4618 17.573C19.4878 17.265 19.4878 16.868 19.4878 16.3V10.25Z" fill="black"/>
</svg>
